PathFileType	4	(X/Y/Z)	traj.trc
DataRate	CameraRate	NumFrames	NumMarkers	Units	OrigDataRate	OrigDataStartFrame	OrigNumFrames
30.00	30.00	125	1	mm	30.00	1	125
Frame#	Time	wrist		
		X1	Y1	Z1

0	0.0	261.5969633264149	-73.7978484942428	200.0
1	0.020161290322580645	261.5969633264149	-73.7978484942428	200.0
2	0.04032258064516129	261.6806984202712	-73.7803357947164	200.0
3	0.06048387096774194	262.08552460892747	-73.69547539200786	200.0
4	0.08064516129032258	263.09839714078163	-73.48175024544733	200.0
5	0.10080645161290322	264.9662707091954	-73.08234061913905	200.0
6	0.12096774193548387	267.8971713746665	-72.44181115180302	200.0
7	0.1411290322580645	272.0611491208495	-71.50268217202586	200.0
8	0.16129032258064516	277.59114206106244	-70.20234415580776	200.0
9	0.1814516129032258	284.5837632034964	-68.47065761756824	200.0
10	0.20161290322580644	293.100020263491	-66.22847650174563	200.0
11	0.2217741935483871	303.16599488394706	-63.3872402838748	200.0
12	0.24193548387096775	314.77353417904305	-59.84969723460213	200.0
13	0.2620967741935484	327.8810381721627	-55.51174723720251	200.0
14	0.282258064516129	342.4144548626041	-50.265325924353476	200.0
15	0.3024193548387097	358.2686144368337	-44.0021919806712	200.0
16	0.3225806451612903	375.30904088393174	-36.618426336279384	200.0
17	0.34274193548387094	393.37436994784474	-28.019406717857294	200.0
18	0.3629032258064516	412.2794757955519	-18.124985602269447	200.0
19	0.38306451612903225	431.81936584633047	-6.874576642091313	200.0
20	0.4032258064516129	451.7738467112565	5.7681531179800345	200.0
21	0.42338709677419356	471.912898718128	19.811278063996696	200.0
22	0.4435483870967742	492.0026279987468	35.23155987913768	200.0
23	0.4637096774193548	511.81160033893616	51.97256079898543	200.0
24	0.4838709677419355	531.1173067592346	69.94407610017345	200.0
25	0.5040322580645161	549.7124732234716	89.02296023832525	200.0
26	0.5241935483870968	567.4109106278065	109.05533631407772	200.0
27	0.5443548387096774	584.0526089074806	129.8600933219834	200.0
28	0.564516129032258	599.5078108841166	151.23349722657875	200.0
29	0.5846774193548387	613.6798550366482	172.9546772477338	200.0
30	0.6048387096774194	626.5066471491486	194.79170355466528	200.0
31	0.625	637.9607025189307	216.50795068834094	200.0
32	0.6451612903225806	648.0477859296757	237.8684439092282	200.0
33	0.6653225806451613	656.8042586834215	258.6459122314439	200.0
34	0.6854838709677419	664.293314193159	278.6263187312544	200.0
35	0.7056451612903225	670.600340963173	297.6137004861934	200.0
36	0.7258064516129032	675.8276910964669	315.4342206574513	200.0
37	0.7459677419354839	680.0891526328124	331.9394067568534	200.0
38	0.7661290322580645	683.5044257274719	347.00861532860034	200.0
39	0.7862903225806451	686.1938880266068	360.5508183861209	200.0
40	0.8064516129032258	688.2739065034316	372.5058467193671	200.0
41	0.8266129032258064	689.8529145953031	382.845247173514	200.0
42	0.8467741935483871	691.0284274186579	391.5729146780759	200.0
43	0.8669354838709677	691.885115953577	398.72564656613605	200.0
44	0.8870967741935484	692.4940040652259	404.3737397083141	200.0
45	0.907258064516129	692.9127895835073	408.6217148260664	200.0
46	0.9274193548387096	693.187220942131	411.6092127990846	200.0
47	0.9475806451612903	693.3533820263862	413.51207123082514	200.0
48	0.967741935483871	693.4406476847766	414.54356234029865	200.0
49	0.9879032258064516	693.4749688784673	414.95576081995773	200.0
50	1.0080645161290323	693.4820282474774	415.04101588371947	200.0
51	1.0282258064516128	693.4820282474774	415.04101588371947	200.0
52	1.0483870967741935	693.4820282474774	415.04101588371947	200.0
53	1.0685483870967742	693.4820282474774	415.04101588371947	200.0
54	1.0887096774193548	693.4820282474774	415.04101588371947	200.0
55	1.1088709677419355	693.4820282474774	415.04101588371947	200.0
56	1.129032258064516	693.4820282474774	415.04101588371947	200.0
57	1.1491935483870968	693.4820282474774	415.04101588371947	200.0
58	1.1693548387096775	693.4820282474774	415.04101588371947	200.0
59	1.189516129032258	693.4820282474774	415.04101588371947	200.0
60	1.2096774193548387	693.4820282474774	415.04101588371947	200.0
61	1.2298387096774193	693.4820282474774	415.04101588371947	200.0
62	1.25	693.4820282474774	415.04101588371947	200.0
63	1.2701612903225805	693.4820282474774	415.04101588371947	200.0
64	1.2903225806451613	693.4820282474774	415.04101588371947	200.0
65	1.310483870967742	693.4820282474774	415.04101588371947	200.0
66	1.3306451612903225	693.4820282474774	415.04101588371947	200.0
67	1.3508064516129032	693.4820282474774	415.04101588371947	200.0
68	1.3709677419354838	693.4820282474774	415.04101588371947	200.0
69	1.3911290322580645	693.4820282474774	415.04101588371947	200.0
70	1.411290322580645	693.4820282474774	415.04101588371947	200.0
71	1.4314516129032258	693.4820282474774	415.04101588371947	200.0
72	1.4516129032258065	693.4820282474774	415.04101588371947	200.0
73	1.471774193548387	693.4820282474774	415.04101588371947	200.0
74	1.4919354838709677	693.4820282474774	415.04101588371947	200.0
75	1.5120967741935483	693.4820282474774	415.04101588371947	200.0
76	1.532258064516129	693.4820282474774	415.04101588371947	200.0
77	1.5524193548387097	693.4749688784673	414.95576081995773	200.0
78	1.5725806451612903	693.4406476847765	414.5435623402984	200.0
79	1.592741935483871	693.3533820263862	413.51207123082503	200.0
80	1.6129032258064515	693.187220942131	411.60921279908456	200.0
81	1.6330645161290323	692.9127895835073	408.6217148260664	200.0
82	1.6532258064516128	692.4940040652259	404.3737397083141	200.0
83	1.6733870967741935	691.885115953577	398.72564656613605	200.0
84	1.6935483870967742	691.0284274186579	391.5729146780759	200.0
85	1.7137096774193548	689.8529145953031	382.8452471735139	200.0
86	1.7338709677419355	688.2739065034315	372.505846719367	200.0
87	1.754032258064516	686.1938880266068	360.5508183861207	200.0
88	1.7741935483870968	683.5044257274719	347.00861532860023	200.0
89	1.7943548387096773	680.0891526328124	331.93940675685315	200.0
90	1.814516129032258	675.8276910964669	315.4342206574513	200.0
91	1.8346774193548387	670.600340963173	297.61370048619324	200.0
92	1.8548387096774193	664.293314193159	278.6263187312543	200.0
93	1.875	656.8042586834214	258.64591223144373	200.0
94	1.8951612903225805	648.0477859296756	237.8684439092279	200.0
95	1.9153225806451613	637.9607025189306	216.5079506883407	200.0
96	1.935483870967742	626.5066471491485	194.791703554665	200.0
97	1.9556451612903225	613.6798550366482	172.9546772477336	200.0
98	1.9758064516129032	599.5078108841163	151.23349722657852	200.0
99	1.9959677419354838	584.0526089074804	129.86009332198321	200.0
100	2.0161290322580645	567.4109106278064	109.05533631407755	200.0
101	2.036290322580645	549.7124732234714	89.02296023832497	200.0
102	2.0564516129032255	531.1173067592345	69.9440761001733	200.0
103	2.0766129032258065	511.81160033893605	51.97256079898523	200.0
104	2.096774193548387	492.00262799874656	35.23155987913751	200.0
105	2.1169354838709675	471.9128987181278	19.811278063996525	200.0
106	2.1370967741935485	451.7738467112563	5.768153117979892	200.0
107	2.157258064516129	431.81936584633024	-6.874576642091398	200.0
108	2.1774193548387095	412.2794757955516	-18.124985602269533	200.0
109	2.1975806451612905	393.37436994784457	-28.019406717857407	200.0
110	2.217741935483871	375.30904088393163	-36.61842633627944	200.0
111	2.2379032258064515	358.26861443683345	-44.002191980671256	200.0
112	2.258064516129032	342.4144548626038	-50.26532592435362	200.0
113	2.278225806451613	327.8810381721625	-55.51174723720257	200.0
114	2.2983870967741935	314.7735341790428	-59.84969723460219	200.0
115	2.318548387096774	303.16599488394684	-63.38724028387492	200.0
116	2.338709677419355	293.10002026349076	-66.22847650174575	200.0
117	2.3588709677419355	284.5837632034962	-68.47065761756826	200.0
118	2.379032258064516	277.59114206106227	-70.2023441558078	200.0
119	2.3991935483870965	272.06114912084934	-71.50268217202589	200.0
120	2.4193548387096775	267.89717137466636	-72.44181115180311	200.0
121	2.439516129032258	264.9662707091953	-73.08234061913907	200.0
122	2.4596774193548385	263.0983971407816	-73.48175024544733	200.0
123	2.4798387096774195	262.0855246089274	-73.69547539200789	200.0
124	2.5	261.6806984202712	-73.7803357947164	200.0
